<svg width="1363" height="163" viewBox="0 0 1363 163" fill="none" xmlns="http://www.w3.org/2000/svg">
<path d="M0 15C0 6.71573 6.71573 0 15 0H37V163H15C6.71573 163 0 156.284 0 148V15Z" fill="#424242"/>
<rect width="1097" height="163" transform="translate(37)" fill="#F0F0F0"/>
<path d="M101.906 53.9219L94.3945 51.2383V48.0859L104.602 52.375V54.6367L101.906 53.9219ZM94.3945 56.1719L101.918 53.4297L104.602 52.7852V55.0352L94.3945 59.3242V56.1719ZM118.137 61H114.422L114.445 58.2578H118.137C119.059 58.2578 119.836 58.0508 120.469 57.6367C121.102 57.2148 121.578 56.6016 121.898 55.7969C122.227 54.9922 122.391 54.0195 122.391 52.8789V52.0469C122.391 51.1719 122.297 50.4023 122.109 49.7383C121.93 49.0742 121.66 48.5156 121.301 48.0625C120.941 47.6094 120.5 47.2695 119.977 47.043C119.453 46.8086 118.852 46.6914 118.172 46.6914H114.352V43.9375H118.172C119.312 43.9375 120.355 44.1328 121.301 44.5234C122.254 44.9062 123.078 45.457 123.773 46.1758C124.469 46.8945 125.004 47.7539 125.379 48.7539C125.762 49.7461 125.953 50.8516 125.953 52.0703V52.8789C125.953 54.0898 125.762 55.1953 125.379 56.1953C125.004 57.1953 124.469 58.0547 123.773 58.7734C123.086 59.4844 122.262 60.0352 121.301 60.4258C120.348 60.8086 119.293 61 118.137 61ZM116.414 43.9375V61H112.898V43.9375H116.414ZM131.672 51.0859V61H128.297V48.3203H131.473L131.672 51.0859ZM135.492 48.2383L135.434 51.3672C135.27 51.3438 135.07 51.3242 134.836 51.3086C134.609 51.2852 134.402 51.2734 134.215 51.2734C133.738 51.2734 133.324 51.3359 132.973 51.4609C132.629 51.5781 132.34 51.7539 132.105 51.9883C131.879 52.2227 131.707 52.5078 131.59 52.8438C131.48 53.1797 131.418 53.5625 131.402 53.9922L130.723 53.7812C130.723 52.9609 130.805 52.207 130.969 51.5195C131.133 50.8242 131.371 50.2188 131.684 49.7031C132.004 49.1875 132.395 48.7891 132.855 48.5078C133.316 48.2266 133.844 48.0859 134.438 48.0859C134.625 48.0859 134.816 48.1016 135.012 48.1328C135.207 48.1562 135.367 48.1914 135.492 48.2383ZM142.688 61.2344C141.703 61.2344 140.82 61.0781 140.039 60.7656C139.258 60.4453 138.594 60.0039 138.047 59.4414C137.508 58.8789 137.094 58.2266 136.805 57.4844C136.516 56.7344 136.371 55.9375 136.371 55.0938V54.625C136.371 53.6641 136.508 52.7852 136.781 51.9883C137.055 51.1914 137.445 50.5 137.953 49.9141C138.469 49.3281 139.094 48.8789 139.828 48.5664C140.562 48.2461 141.391 48.0859 142.312 48.0859C143.211 48.0859 144.008 48.2344 144.703 48.5312C145.398 48.8281 145.98 49.25 146.449 49.7969C146.926 50.3438 147.285 51 147.527 51.7656C147.77 52.5234 147.891 53.3672 147.891 54.2969V55.7031H137.812V53.4531H144.574V53.1953C144.574 52.7266 144.488 52.3086 144.316 51.9414C144.152 51.5664 143.902 51.2695 143.566 51.0508C143.23 50.832 142.801 50.7227 142.277 50.7227C141.832 50.7227 141.449 50.8203 141.129 51.0156C140.809 51.2109 140.547 51.4844 140.344 51.8359C140.148 52.1875 140 52.6016 139.898 53.0781C139.805 53.5469 139.758 54.0625 139.758 54.625V55.0938C139.758 55.6016 139.828 56.0703 139.969 56.5C140.117 56.9297 140.324 57.3008 140.59 57.6133C140.863 57.9258 141.191 58.168 141.574 58.3398C141.965 58.5117 142.406 58.5977 142.898 58.5977C143.508 58.5977 144.074 58.4805 144.598 58.2461C145.129 58.0039 145.586 57.6406 145.969 57.1562L147.609 58.9375C147.344 59.3203 146.98 59.6875 146.52 60.0391C146.066 60.3906 145.52 60.6797 144.879 60.9062C144.238 61.125 143.508 61.2344 142.688 61.2344ZM156.656 58.1406V52.4922C156.656 52.0859 156.59 51.7383 156.457 51.4492C156.324 51.1523 156.117 50.9219 155.836 50.7578C155.562 50.5938 155.207 50.5117 154.77 50.5117C154.395 50.5117 154.07 50.5781 153.797 50.7109C153.523 50.8359 153.312 51.0195 153.164 51.2617C153.016 51.4961 152.941 51.7734 152.941 52.0938H149.566C149.566 51.5547 149.691 51.043 149.941 50.5586C150.191 50.0742 150.555 49.6484 151.031 49.2812C151.508 48.9062 152.074 48.6133 152.73 48.4023C153.395 48.1914 154.137 48.0859 154.957 48.0859C155.941 48.0859 156.816 48.25 157.582 48.5781C158.348 48.9062 158.949 49.3984 159.387 50.0547C159.832 50.7109 160.055 51.5312 160.055 52.5156V57.9414C160.055 58.6367 160.098 59.207 160.184 59.6523C160.27 60.0898 160.395 60.4727 160.559 60.8008V61H157.148C156.984 60.6562 156.859 60.2266 156.773 59.7109C156.695 59.1875 156.656 58.6641 156.656 58.1406ZM157.102 53.2773L157.125 55.1875H155.238C154.793 55.1875 154.406 55.2383 154.078 55.3398C153.75 55.4414 153.48 55.5859 153.27 55.7734C153.059 55.9531 152.902 56.1641 152.801 56.4062C152.707 56.6484 152.66 56.9141 152.66 57.2031C152.66 57.4922 152.727 57.7539 152.859 57.9883C152.992 58.2148 153.184 58.3945 153.434 58.5273C153.684 58.6523 153.977 58.7148 154.312 58.7148C154.82 58.7148 155.262 58.6133 155.637 58.4102C156.012 58.207 156.301 57.957 156.504 57.6602C156.715 57.3633 156.824 57.082 156.832 56.8164L157.723 58.2461C157.598 58.5664 157.426 58.8984 157.207 59.2422C156.996 59.5859 156.727 59.9102 156.398 60.2148C156.07 60.5117 155.676 60.7578 155.215 60.9531C154.754 61.1406 154.207 61.2344 153.574 61.2344C152.77 61.2344 152.039 61.0742 151.383 60.7539C150.734 60.4258 150.219 59.9766 149.836 59.4062C149.461 58.8281 149.273 58.1719 149.273 57.4375C149.273 56.7734 149.398 56.1836 149.648 55.668C149.898 55.1523 150.266 54.7188 150.75 54.3672C151.242 54.0078 151.855 53.7383 152.59 53.5586C153.324 53.3711 154.176 53.2773 155.145 53.2773H157.102ZM166.031 50.9453V61H162.645V48.3203H165.82L166.031 50.9453ZM165.562 54.2148H164.625C164.625 53.332 164.73 52.5195 164.941 51.7773C165.16 51.0273 165.477 50.3789 165.891 49.832C166.312 49.2773 166.832 48.8477 167.449 48.543C168.066 48.2383 168.781 48.0859 169.594 48.0859C170.156 48.0859 170.672 48.1719 171.141 48.3438C171.609 48.5078 172.012 48.7695 172.348 49.1289C172.691 49.4805 172.957 49.9414 173.145 50.5117C173.332 51.0742 173.426 51.75 173.426 52.5391V61H170.051V52.9141C170.051 52.3359 169.973 51.8906 169.816 51.5781C169.66 51.2656 169.438 51.0469 169.148 50.9219C168.867 50.7969 168.527 50.7344 168.129 50.7344C167.691 50.7344 167.309 50.8242 166.98 51.0039C166.66 51.1836 166.395 51.4336 166.184 51.7539C165.973 52.0664 165.816 52.4336 165.715 52.8555C165.613 53.2773 165.562 53.7305 165.562 54.2148ZM173.109 53.8281L171.902 53.9805C171.902 53.1523 172.004 52.3828 172.207 51.6719C172.418 50.9609 172.727 50.3359 173.133 49.7969C173.547 49.2578 174.059 48.8398 174.668 48.543C175.277 48.2383 175.98 48.0859 176.777 48.0859C177.387 48.0859 177.941 48.1758 178.441 48.3555C178.941 48.5273 179.367 48.8047 179.719 49.1875C180.078 49.5625 180.352 50.0547 180.539 50.6641C180.734 51.2734 180.832 52.0195 180.832 52.9023V61H177.445V52.9023C177.445 52.3164 177.367 51.8711 177.211 51.5664C177.062 51.2539 176.844 51.0391 176.555 50.9219C176.273 50.7969 175.938 50.7344 175.547 50.7344C175.141 50.7344 174.785 50.8164 174.48 50.9805C174.176 51.1367 173.922 51.3555 173.719 51.6367C173.516 51.918 173.363 52.2461 173.262 52.6211C173.16 52.9883 173.109 53.3906 173.109 53.8281ZM197.543 43.9375V61H194.027L187.172 49.5625V61H183.656V43.9375H187.172L194.039 55.3867V43.9375H197.543ZM206.227 61.2344C205.242 61.2344 204.359 61.0781 203.578 60.7656C202.797 60.4453 202.133 60.0039 201.586 59.4414C201.047 58.8789 200.633 58.2266 200.344 57.4844C200.055 56.7344 199.91 55.9375 199.91 55.0938V54.625C199.91 53.6641 200.047 52.7852 200.32 51.9883C200.594 51.1914 200.984 50.5 201.492 49.9141C202.008 49.3281 202.633 48.8789 203.367 48.5664C204.102 48.2461 204.93 48.0859 205.852 48.0859C206.75 48.0859 207.547 48.2344 208.242 48.5312C208.938 48.8281 209.52 49.25 209.988 49.7969C210.465 50.3438 210.824 51 211.066 51.7656C211.309 52.5234 211.43 53.3672 211.43 54.2969V55.7031H201.352V53.4531H208.113V53.1953C208.113 52.7266 208.027 52.3086 207.855 51.9414C207.691 51.5664 207.441 51.2695 207.105 51.0508C206.77 50.832 206.34 50.7227 205.816 50.7227C205.371 50.7227 204.988 50.8203 204.668 51.0156C204.348 51.2109 204.086 51.4844 203.883 51.8359C203.688 52.1875 203.539 52.6016 203.438 53.0781C203.344 53.5469 203.297 54.0625 203.297 54.625V55.0938C203.297 55.6016 203.367 56.0703 203.508 56.5C203.656 56.9297 203.863 57.3008 204.129 57.6133C204.402 57.9258 204.73 58.168 205.113 58.3398C205.504 58.5117 205.945 58.5977 206.438 58.5977C207.047 58.5977 207.613 58.4805 208.137 58.2461C208.668 58.0039 209.125 57.6406 209.508 57.1562L211.148 58.9375C210.883 59.3203 210.52 59.6875 210.059 60.0391C209.605 60.3906 209.059 60.6797 208.418 60.9062C207.777 61.125 207.047 61.2344 206.227 61.2344ZM220.207 57.4961C220.207 57.2539 220.137 57.0352 219.996 56.8398C219.855 56.6445 219.594 56.4648 219.211 56.3008C218.836 56.1289 218.293 55.9727 217.582 55.832C216.941 55.6914 216.344 55.5156 215.789 55.3047C215.242 55.0859 214.766 54.8242 214.359 54.5195C213.961 54.2148 213.648 53.8555 213.422 53.4414C213.195 53.0195 213.082 52.5391 213.082 52C213.082 51.4688 213.195 50.9688 213.422 50.5C213.656 50.0312 213.988 49.6172 214.418 49.2578C214.855 48.8906 215.387 48.6055 216.012 48.4023C216.645 48.1914 217.355 48.0859 218.145 48.0859C219.246 48.0859 220.191 48.2617 220.98 48.6133C221.777 48.9648 222.387 49.4492 222.809 50.0664C223.238 50.6758 223.453 51.3711 223.453 52.1523H220.078C220.078 51.8242 220.008 51.5312 219.867 51.2734C219.734 51.0078 219.523 50.8008 219.234 50.6523C218.953 50.4961 218.586 50.418 218.133 50.418C217.758 50.418 217.434 50.4844 217.16 50.6172C216.887 50.7422 216.676 50.9141 216.527 51.1328C216.387 51.3438 216.316 51.5781 216.316 51.8359C216.316 52.0312 216.355 52.207 216.434 52.3633C216.52 52.5117 216.656 52.6484 216.844 52.7734C217.031 52.8984 217.273 53.0156 217.57 53.125C217.875 53.2266 218.25 53.3203 218.695 53.4062C219.609 53.5938 220.426 53.8398 221.145 54.1445C221.863 54.4414 222.434 54.8477 222.855 55.3633C223.277 55.8711 223.488 56.5391 223.488 57.3672C223.488 57.9297 223.363 58.4453 223.113 58.9141C222.863 59.3828 222.504 59.793 222.035 60.1445C221.566 60.4883 221.004 60.7578 220.348 60.9531C219.699 61.1406 218.969 61.2344 218.156 61.2344C216.977 61.2344 215.977 61.0234 215.156 60.6016C214.344 60.1797 213.727 59.6445 213.305 58.9961C212.891 58.3398 212.684 57.668 212.684 56.9805H215.883C215.898 57.4414 216.016 57.8125 216.234 58.0938C216.461 58.375 216.746 58.5781 217.09 58.7031C217.441 58.8281 217.82 58.8906 218.227 58.8906C218.664 58.8906 219.027 58.832 219.316 58.7148C219.605 58.5898 219.824 58.4258 219.973 58.2227C220.129 58.0117 220.207 57.7695 220.207 57.4961ZM231.891 48.3203V50.7109H224.508V48.3203H231.891ZM226.336 45.1914H229.711V57.1797C229.711 57.5469 229.758 57.8281 229.852 58.0234C229.953 58.2188 230.102 58.3555 230.297 58.4336C230.492 58.5039 230.738 58.5391 231.035 58.5391C231.246 58.5391 231.434 58.5312 231.598 58.5156C231.77 58.4922 231.914 58.4688 232.031 58.4453L232.043 60.9297C231.754 61.0234 231.441 61.0977 231.105 61.1523C230.77 61.207 230.398 61.2344 229.992 61.2344C229.25 61.2344 228.602 61.1133 228.047 60.8711C227.5 60.6211 227.078 60.2227 226.781 59.6758C226.484 59.1289 226.336 58.4102 226.336 57.5195V45.1914Z" fill="#888888"/>
<path d="M106.688 119H99.1172L99.1641 112.672H106.688C108.25 112.672 109.57 112.297 110.648 111.547C111.742 110.797 112.57 109.68 113.133 108.195C113.711 106.695 114 104.852 114 102.664V101.188C114 99.5469 113.836 98.1094 113.508 96.875C113.195 95.625 112.727 94.5859 112.102 93.7578C111.477 92.9141 110.695 92.2812 109.758 91.8594C108.836 91.4375 107.773 91.2266 106.57 91.2266H98.9766V84.875H106.57C108.883 84.875 111 85.2734 112.922 86.0703C114.859 86.8516 116.531 87.9766 117.938 89.4453C119.359 90.8984 120.453 92.625 121.219 94.625C122 96.6094 122.391 98.8125 122.391 101.234V102.664C122.391 105.07 122 107.273 121.219 109.273C120.453 111.273 119.367 113 117.961 114.453C116.555 115.906 114.891 117.031 112.969 117.828C111.062 118.609 108.969 119 106.688 119ZM103.828 84.875V119H95.6016V84.875H103.828ZM138.586 119.469C136.523 119.469 134.68 119.148 133.055 118.508C131.43 117.852 130.055 116.953 128.93 115.812C127.82 114.672 126.969 113.359 126.375 111.875C125.797 110.391 125.508 108.82 125.508 107.164V106.273C125.508 104.414 125.766 102.695 126.281 101.117C126.797 99.5234 127.562 98.1328 128.578 96.9453C129.594 95.7578 130.867 94.8359 132.398 94.1797C133.93 93.5078 135.711 93.1719 137.742 93.1719C139.539 93.1719 141.148 93.4609 142.57 94.0391C143.992 94.6172 145.195 95.4453 146.18 96.5234C147.18 97.6016 147.938 98.9062 148.453 100.438C148.984 101.969 149.25 103.688 149.25 105.594V108.805H128.531V103.859H141.539V103.25C141.555 102.406 141.406 101.688 141.094 101.094C140.797 100.5 140.359 100.047 139.781 99.7344C139.203 99.4219 138.5 99.2656 137.672 99.2656C136.812 99.2656 136.102 99.4531 135.539 99.8281C134.992 100.203 134.562 100.719 134.25 101.375C133.953 102.016 133.742 102.758 133.617 103.602C133.492 104.445 133.43 105.336 133.43 106.273V107.164C133.43 108.102 133.555 108.953 133.805 109.719C134.07 110.484 134.445 111.141 134.93 111.688C135.43 112.219 136.023 112.633 136.711 112.93C137.414 113.227 138.211 113.375 139.102 113.375C140.18 113.375 141.242 113.172 142.289 112.766C143.336 112.359 144.234 111.688 144.984 110.75L148.57 115.016C148.055 115.75 147.32 116.461 146.367 117.148C145.43 117.836 144.305 118.398 142.992 118.836C141.68 119.258 140.211 119.469 138.586 119.469ZM160.43 99.0078V119H152.531V93.6406H159.938L160.43 99.0078ZM159.469 105.453L157.664 105.5C157.664 103.719 157.875 102.078 158.297 100.578C158.719 99.0781 159.344 97.7734 160.172 96.6641C161 95.5547 162.016 94.6953 163.219 94.0859C164.438 93.4766 165.844 93.1719 167.438 93.1719C168.547 93.1719 169.555 93.3438 170.461 93.6875C171.367 94.0156 172.148 94.5391 172.805 95.2578C173.461 95.9609 173.961 96.8828 174.305 98.0234C174.664 99.1484 174.844 100.5 174.844 102.078V119H166.945V103.086C166.945 102.008 166.82 101.195 166.57 100.648C166.336 100.102 165.992 99.7344 165.539 99.5469C165.086 99.3594 164.531 99.2656 163.875 99.2656C163.188 99.2656 162.57 99.4219 162.023 99.7344C161.477 100.047 161.008 100.484 160.617 101.047C160.242 101.594 159.953 102.242 159.75 102.992C159.562 103.742 159.469 104.562 159.469 105.453ZM173.953 105.453L171.75 105.5C171.75 103.719 171.945 102.078 172.336 100.578C172.742 99.0781 173.344 97.7734 174.141 96.6641C174.953 95.5547 175.961 94.6953 177.164 94.0859C178.367 93.4766 179.766 93.1719 181.359 93.1719C182.516 93.1719 183.578 93.3438 184.547 93.6875C185.516 94.0312 186.352 94.5859 187.055 95.3516C187.758 96.1172 188.305 97.1328 188.695 98.3984C189.086 99.6484 189.281 101.195 189.281 103.039V119H181.359V103.039C181.359 101.992 181.234 101.203 180.984 100.672C180.75 100.125 180.406 99.7578 179.953 99.5703C179.5 99.3672 178.961 99.2656 178.336 99.2656C177.586 99.2656 176.938 99.4219 176.391 99.7344C175.844 100.047 175.383 100.484 175.008 101.047C174.648 101.594 174.383 102.242 174.211 102.992C174.039 103.742 173.953 104.562 173.953 105.453ZM192.82 106.578V106.086C192.82 104.227 193.086 102.516 193.617 100.953C194.148 99.375 194.93 98.0078 195.961 96.8516C196.992 95.6953 198.266 94.7969 199.781 94.1562C201.297 93.5 203.047 93.1719 205.031 93.1719C207.031 93.1719 208.789 93.5 210.305 94.1562C211.836 94.7969 213.117 95.6953 214.148 96.8516C215.18 98.0078 215.961 99.375 216.492 100.953C217.023 102.516 217.289 104.227 217.289 106.086V106.578C217.289 108.422 217.023 110.133 216.492 111.711C215.961 113.273 215.18 114.641 214.148 115.812C213.117 116.969 211.844 117.867 210.328 118.508C208.812 119.148 207.062 119.469 205.078 119.469C203.094 119.469 201.336 119.148 199.805 118.508C198.273 117.867 196.992 116.969 195.961 115.812C194.93 114.641 194.148 113.273 193.617 111.711C193.086 110.133 192.82 108.422 192.82 106.578ZM200.719 106.086V106.578C200.719 107.531 200.789 108.422 200.93 109.25C201.07 110.078 201.305 110.805 201.633 111.43C201.961 112.039 202.406 112.516 202.969 112.859C203.531 113.203 204.234 113.375 205.078 113.375C205.906 113.375 206.594 113.203 207.141 112.859C207.703 112.516 208.148 112.039 208.477 111.43C208.805 110.805 209.039 110.078 209.18 109.25C209.32 108.422 209.391 107.531 209.391 106.578V106.086C209.391 105.164 209.32 104.297 209.18 103.484C209.039 102.656 208.805 101.93 208.477 101.305C208.148 100.664 207.703 100.164 207.141 99.8047C206.578 99.4453 205.875 99.2656 205.031 99.2656C204.203 99.2656 203.508 99.4453 202.945 99.8047C202.398 100.164 201.961 100.664 201.633 101.305C201.305 101.93 201.07 102.656 200.93 103.484C200.789 104.297 200.719 105.164 200.719 106.086Z" fill="black"/>
<path d="M1134 0H1348C1356.28 0 1363 6.71573 1363 15V148C1363 156.284 1356.28 163 1348 163H1134V0Z" fill="#5957AF"/>
<path d="M1280.07 47.5H1216.93L1214.5 49.9286V113.071L1216.93 115.5H1280.07L1282.5 113.071V49.9286L1280.07 47.5ZM1277.64 110.643H1233.93V100.929H1245.1C1246.56 103.843 1249.96 105.786 1253.36 105.786C1258.7 105.786 1263.07 101.414 1263.07 96.0714C1263.07 90.7286 1258.7 86.3571 1253.36 86.3571C1248.01 86.3571 1243.64 90.7286 1243.64 96.0714H1229.07V110.643H1219.36V52.3571H1229.07V63.5286C1226.16 64.9857 1224.21 68.3857 1224.21 71.7857C1224.21 77.1286 1228.59 81.5 1233.93 81.5C1239.27 81.5 1243.64 77.1286 1243.64 71.7857H1253.36C1253.36 77.1286 1257.73 81.5 1263.07 81.5C1268.41 81.5 1272.79 77.1286 1272.79 71.7857C1272.79 66.4429 1268.41 62.0714 1263.07 62.0714C1259.67 62.0714 1256.27 64.0143 1254.81 66.9286H1242.19C1240.73 64.0143 1237.33 62.0714 1233.93 62.0714V52.3571H1277.64V110.643ZM1248.5 96.0714C1248.5 93.1571 1250.44 91.2143 1253.36 91.2143C1256.27 91.2143 1258.21 93.1571 1258.21 96.0714C1258.21 98.9857 1256.27 100.929 1253.36 100.929C1250.44 100.929 1248.5 98.9857 1248.5 96.0714ZM1233.93 66.9286C1236.84 66.9286 1238.79 68.8714 1238.79 71.7857C1238.79 74.7 1236.84 76.6429 1233.93 76.6429C1231.01 76.6429 1229.07 74.7 1229.07 71.7857C1229.07 68.8714 1231.01 66.9286 1233.93 66.9286ZM1263.07 66.9286C1265.99 66.9286 1267.93 68.8714 1267.93 71.7857C1267.93 74.7 1265.99 76.6429 1263.07 76.6429C1260.16 76.6429 1258.21 74.7 1258.21 71.7857C1258.21 68.8714 1260.16 66.9286 1263.07 66.9286Z" fill="white"/>
</svg>
