<svg width="1363" height="163" viewBox="0 0 1363 163" fill="none" xmlns="http://www.w3.org/2000/svg">
<path d="M0 15C0 6.71573 6.71573 0 15 0H37V163H15C6.71573 163 0 156.284 0 148V15Z" fill="#424242"/>
<rect width="1097" height="163" transform="translate(37)" fill="#F0F0F0"/>
<path d="M101.906 53.9219L94.3945 51.2383V48.0859L104.602 52.375V54.6367L101.906 53.9219ZM94.3945 56.1719L101.918 53.4297L104.602 52.7852V55.0352L94.3945 59.3242V56.1719ZM118.137 61H114.422L114.445 58.2578H118.137C119.059 58.2578 119.836 58.0508 120.469 57.6367C121.102 57.2148 121.578 56.6016 121.898 55.7969C122.227 54.9922 122.391 54.0195 122.391 52.8789V52.0469C122.391 51.1719 122.297 50.4023 122.109 49.7383C121.93 49.0742 121.66 48.5156 121.301 48.0625C120.941 47.6094 120.5 47.2695 119.977 47.043C119.453 46.8086 118.852 46.6914 118.172 46.6914H114.352V43.9375H118.172C119.312 43.9375 120.355 44.1328 121.301 44.5234C122.254 44.9062 123.078 45.457 123.773 46.1758C124.469 46.8945 125.004 47.7539 125.379 48.7539C125.762 49.7461 125.953 50.8516 125.953 52.0703V52.8789C125.953 54.0898 125.762 55.1953 125.379 56.1953C125.004 57.1953 124.469 58.0547 123.773 58.7734C123.086 59.4844 122.262 60.0352 121.301 60.4258C120.348 60.8086 119.293 61 118.137 61ZM116.414 43.9375V61H112.898V43.9375H116.414ZM131.672 51.0859V61H128.297V48.3203H131.473L131.672 51.0859ZM135.492 48.2383L135.434 51.3672C135.27 51.3438 135.07 51.3242 134.836 51.3086C134.609 51.2852 134.402 51.2734 134.215 51.2734C133.738 51.2734 133.324 51.3359 132.973 51.4609C132.629 51.5781 132.34 51.7539 132.105 51.9883C131.879 52.2227 131.707 52.5078 131.59 52.8438C131.48 53.1797 131.418 53.5625 131.402 53.9922L130.723 53.7812C130.723 52.9609 130.805 52.207 130.969 51.5195C131.133 50.8242 131.371 50.2188 131.684 49.7031C132.004 49.1875 132.395 48.7891 132.855 48.5078C133.316 48.2266 133.844 48.0859 134.438 48.0859C134.625 48.0859 134.816 48.1016 135.012 48.1328C135.207 48.1562 135.367 48.1914 135.492 48.2383ZM142.688 61.2344C141.703 61.2344 140.82 61.0781 140.039 60.7656C139.258 60.4453 138.594 60.0039 138.047 59.4414C137.508 58.8789 137.094 58.2266 136.805 57.4844C136.516 56.7344 136.371 55.9375 136.371 55.0938V54.625C136.371 53.6641 136.508 52.7852 136.781 51.9883C137.055 51.1914 137.445 50.5 137.953 49.9141C138.469 49.3281 139.094 48.8789 139.828 48.5664C140.562 48.2461 141.391 48.0859 142.312 48.0859C143.211 48.0859 144.008 48.2344 144.703 48.5312C145.398 48.8281 145.98 49.25 146.449 49.7969C146.926 50.3438 147.285 51 147.527 51.7656C147.77 52.5234 147.891 53.3672 147.891 54.2969V55.7031H137.812V53.4531H144.574V53.1953C144.574 52.7266 144.488 52.3086 144.316 51.9414C144.152 51.5664 143.902 51.2695 143.566 51.0508C143.23 50.832 142.801 50.7227 142.277 50.7227C141.832 50.7227 141.449 50.8203 141.129 51.0156C140.809 51.2109 140.547 51.4844 140.344 51.8359C140.148 52.1875 140 52.6016 139.898 53.0781C139.805 53.5469 139.758 54.0625 139.758 54.625V55.0938C139.758 55.6016 139.828 56.0703 139.969 56.5C140.117 56.9297 140.324 57.3008 140.59 57.6133C140.863 57.9258 141.191 58.168 141.574 58.3398C141.965 58.5117 142.406 58.5977 142.898 58.5977C143.508 58.5977 144.074 58.4805 144.598 58.2461C145.129 58.0039 145.586 57.6406 145.969 57.1562L147.609 58.9375C147.344 59.3203 146.98 59.6875 146.52 60.0391C146.066 60.3906 145.52 60.6797 144.879 60.9062C144.238 61.125 143.508 61.2344 142.688 61.2344ZM156.656 58.1406V52.4922C156.656 52.0859 156.59 51.7383 156.457 51.4492C156.324 51.1523 156.117 50.9219 155.836 50.7578C155.562 50.5938 155.207 50.5117 154.77 50.5117C154.395 50.5117 154.07 50.5781 153.797 50.7109C153.523 50.8359 153.312 51.0195 153.164 51.2617C153.016 51.4961 152.941 51.7734 152.941 52.0938H149.566C149.566 51.5547 149.691 51.043 149.941 50.5586C150.191 50.0742 150.555 49.6484 151.031 49.2812C151.508 48.9062 152.074 48.6133 152.73 48.4023C153.395 48.1914 154.137 48.0859 154.957 48.0859C155.941 48.0859 156.816 48.25 157.582 48.5781C158.348 48.9062 158.949 49.3984 159.387 50.0547C159.832 50.7109 160.055 51.5312 160.055 52.5156V57.9414C160.055 58.6367 160.098 59.207 160.184 59.6523C160.27 60.0898 160.395 60.4727 160.559 60.8008V61H157.148C156.984 60.6562 156.859 60.2266 156.773 59.7109C156.695 59.1875 156.656 58.6641 156.656 58.1406ZM157.102 53.2773L157.125 55.1875H155.238C154.793 55.1875 154.406 55.2383 154.078 55.3398C153.75 55.4414 153.48 55.5859 153.27 55.7734C153.059 55.9531 152.902 56.1641 152.801 56.4062C152.707 56.6484 152.66 56.9141 152.66 57.2031C152.66 57.4922 152.727 57.7539 152.859 57.9883C152.992 58.2148 153.184 58.3945 153.434 58.5273C153.684 58.6523 153.977 58.7148 154.312 58.7148C154.82 58.7148 155.262 58.6133 155.637 58.4102C156.012 58.207 156.301 57.957 156.504 57.6602C156.715 57.3633 156.824 57.082 156.832 56.8164L157.723 58.2461C157.598 58.5664 157.426 58.8984 157.207 59.2422C156.996 59.5859 156.727 59.9102 156.398 60.2148C156.07 60.5117 155.676 60.7578 155.215 60.9531C154.754 61.1406 154.207 61.2344 153.574 61.2344C152.77 61.2344 152.039 61.0742 151.383 60.7539C150.734 60.4258 150.219 59.9766 149.836 59.4062C149.461 58.8281 149.273 58.1719 149.273 57.4375C149.273 56.7734 149.398 56.1836 149.648 55.668C149.898 55.1523 150.266 54.7188 150.75 54.3672C151.242 54.0078 151.855 53.7383 152.59 53.5586C153.324 53.3711 154.176 53.2773 155.145 53.2773H157.102ZM166.031 50.9453V61H162.645V48.3203H165.82L166.031 50.9453ZM165.562 54.2148H164.625C164.625 53.332 164.73 52.5195 164.941 51.7773C165.16 51.0273 165.477 50.3789 165.891 49.832C166.312 49.2773 166.832 48.8477 167.449 48.543C168.066 48.2383 168.781 48.0859 169.594 48.0859C170.156 48.0859 170.672 48.1719 171.141 48.3438C171.609 48.5078 172.012 48.7695 172.348 49.1289C172.691 49.4805 172.957 49.9414 173.145 50.5117C173.332 51.0742 173.426 51.75 173.426 52.5391V61H170.051V52.9141C170.051 52.3359 169.973 51.8906 169.816 51.5781C169.66 51.2656 169.438 51.0469 169.148 50.9219C168.867 50.7969 168.527 50.7344 168.129 50.7344C167.691 50.7344 167.309 50.8242 166.98 51.0039C166.66 51.1836 166.395 51.4336 166.184 51.7539C165.973 52.0664 165.816 52.4336 165.715 52.8555C165.613 53.2773 165.562 53.7305 165.562 54.2148ZM173.109 53.8281L171.902 53.9805C171.902 53.1523 172.004 52.3828 172.207 51.6719C172.418 50.9609 172.727 50.3359 173.133 49.7969C173.547 49.2578 174.059 48.8398 174.668 48.543C175.277 48.2383 175.98 48.0859 176.777 48.0859C177.387 48.0859 177.941 48.1758 178.441 48.3555C178.941 48.5273 179.367 48.8047 179.719 49.1875C180.078 49.5625 180.352 50.0547 180.539 50.6641C180.734 51.2734 180.832 52.0195 180.832 52.9023V61H177.445V52.9023C177.445 52.3164 177.367 51.8711 177.211 51.5664C177.062 51.2539 176.844 51.0391 176.555 50.9219C176.273 50.7969 175.938 50.7344 175.547 50.7344C175.141 50.7344 174.785 50.8164 174.48 50.9805C174.176 51.1367 173.922 51.3555 173.719 51.6367C173.516 51.918 173.363 52.2461 173.262 52.6211C173.16 52.9883 173.109 53.3906 173.109 53.8281ZM197.543 43.9375V61H194.027L187.172 49.5625V61H183.656V43.9375H187.172L194.039 55.3867V43.9375H197.543ZM206.227 61.2344C205.242 61.2344 204.359 61.0781 203.578 60.7656C202.797 60.4453 202.133 60.0039 201.586 59.4414C201.047 58.8789 200.633 58.2266 200.344 57.4844C200.055 56.7344 199.91 55.9375 199.91 55.0938V54.625C199.91 53.6641 200.047 52.7852 200.32 51.9883C200.594 51.1914 200.984 50.5 201.492 49.9141C202.008 49.3281 202.633 48.8789 203.367 48.5664C204.102 48.2461 204.93 48.0859 205.852 48.0859C206.75 48.0859 207.547 48.2344 208.242 48.5312C208.938 48.8281 209.52 49.25 209.988 49.7969C210.465 50.3438 210.824 51 211.066 51.7656C211.309 52.5234 211.43 53.3672 211.43 54.2969V55.7031H201.352V53.4531H208.113V53.1953C208.113 52.7266 208.027 52.3086 207.855 51.9414C207.691 51.5664 207.441 51.2695 207.105 51.0508C206.77 50.832 206.34 50.7227 205.816 50.7227C205.371 50.7227 204.988 50.8203 204.668 51.0156C204.348 51.2109 204.086 51.4844 203.883 51.8359C203.688 52.1875 203.539 52.6016 203.438 53.0781C203.344 53.5469 203.297 54.0625 203.297 54.625V55.0938C203.297 55.6016 203.367 56.0703 203.508 56.5C203.656 56.9297 203.863 57.3008 204.129 57.6133C204.402 57.9258 204.73 58.168 205.113 58.3398C205.504 58.5117 205.945 58.5977 206.438 58.5977C207.047 58.5977 207.613 58.4805 208.137 58.2461C208.668 58.0039 209.125 57.6406 209.508 57.1562L211.148 58.9375C210.883 59.3203 210.52 59.6875 210.059 60.0391C209.605 60.3906 209.059 60.6797 208.418 60.9062C207.777 61.125 207.047 61.2344 206.227 61.2344ZM220.207 57.4961C220.207 57.2539 220.137 57.0352 219.996 56.8398C219.855 56.6445 219.594 56.4648 219.211 56.3008C218.836 56.1289 218.293 55.9727 217.582 55.832C216.941 55.6914 216.344 55.5156 215.789 55.3047C215.242 55.0859 214.766 54.8242 214.359 54.5195C213.961 54.2148 213.648 53.8555 213.422 53.4414C213.195 53.0195 213.082 52.5391 213.082 52C213.082 51.4688 213.195 50.9688 213.422 50.5C213.656 50.0312 213.988 49.6172 214.418 49.2578C214.855 48.8906 215.387 48.6055 216.012 48.4023C216.645 48.1914 217.355 48.0859 218.145 48.0859C219.246 48.0859 220.191 48.2617 220.98 48.6133C221.777 48.9648 222.387 49.4492 222.809 50.0664C223.238 50.6758 223.453 51.3711 223.453 52.1523H220.078C220.078 51.8242 220.008 51.5312 219.867 51.2734C219.734 51.0078 219.523 50.8008 219.234 50.6523C218.953 50.4961 218.586 50.418 218.133 50.418C217.758 50.418 217.434 50.4844 217.16 50.6172C216.887 50.7422 216.676 50.9141 216.527 51.1328C216.387 51.3438 216.316 51.5781 216.316 51.8359C216.316 52.0312 216.355 52.207 216.434 52.3633C216.52 52.5117 216.656 52.6484 216.844 52.7734C217.031 52.8984 217.273 53.0156 217.57 53.125C217.875 53.2266 218.25 53.3203 218.695 53.4062C219.609 53.5938 220.426 53.8398 221.145 54.1445C221.863 54.4414 222.434 54.8477 222.855 55.3633C223.277 55.8711 223.488 56.5391 223.488 57.3672C223.488 57.9297 223.363 58.4453 223.113 58.9141C222.863 59.3828 222.504 59.793 222.035 60.1445C221.566 60.4883 221.004 60.7578 220.348 60.9531C219.699 61.1406 218.969 61.2344 218.156 61.2344C216.977 61.2344 215.977 61.0234 215.156 60.6016C214.344 60.1797 213.727 59.6445 213.305 58.9961C212.891 58.3398 212.684 57.668 212.684 56.9805H215.883C215.898 57.4414 216.016 57.8125 216.234 58.0938C216.461 58.375 216.746 58.5781 217.09 58.7031C217.441 58.8281 217.82 58.8906 218.227 58.8906C218.664 58.8906 219.027 58.832 219.316 58.7148C219.605 58.5898 219.824 58.4258 219.973 58.2227C220.129 58.0117 220.207 57.7695 220.207 57.4961ZM231.891 48.3203V50.7109H224.508V48.3203H231.891ZM226.336 45.1914H229.711V57.1797C229.711 57.5469 229.758 57.8281 229.852 58.0234C229.953 58.2188 230.102 58.3555 230.297 58.4336C230.492 58.5039 230.738 58.5391 231.035 58.5391C231.246 58.5391 231.434 58.5312 231.598 58.5156C231.77 58.4922 231.914 58.4688 232.031 58.4453L232.043 60.9297C231.754 61.0234 231.441 61.0977 231.105 61.1523C230.77 61.207 230.398 61.2344 229.992 61.2344C229.25 61.2344 228.602 61.1133 228.047 60.8711C227.5 60.6211 227.078 60.2227 226.781 59.6758C226.484 59.1289 226.336 58.4102 226.336 57.5195V45.1914Z" fill="#888888"/>
<path d="M109.219 107.422H100.734V101.07H109.219C110.375 101.07 111.312 100.875 112.031 100.484C112.75 100.094 113.273 99.5547 113.602 98.8672C113.945 98.1641 114.117 97.375 114.117 96.5C114.117 95.5625 113.945 94.6953 113.602 93.8984C113.273 93.1016 112.75 92.4609 112.031 91.9766C111.312 91.4766 110.375 91.2266 109.219 91.2266H103.828V119H95.6016V84.875H109.219C111.953 84.875 114.305 85.375 116.273 86.375C118.258 87.375 119.781 88.75 120.844 90.5C121.906 92.2344 122.438 94.2188 122.438 96.4531C122.438 98.6562 121.906 100.578 120.844 102.219C119.781 103.859 118.258 105.141 116.273 106.062C114.305 106.969 111.953 107.422 109.219 107.422ZM134.461 99.9219V119H126.562V93.6406H133.945L134.461 99.9219ZM141.961 93.4531L141.82 100.789C141.508 100.758 141.086 100.719 140.555 100.672C140.023 100.625 139.578 100.602 139.219 100.602C138.297 100.602 137.5 100.711 136.828 100.93C136.172 101.133 135.625 101.445 135.188 101.867C134.766 102.273 134.453 102.789 134.25 103.414C134.062 104.039 133.977 104.766 133.992 105.594L132.562 104.656C132.562 102.953 132.727 101.406 133.055 100.016C133.398 98.6094 133.883 97.3984 134.508 96.3828C135.133 95.3516 135.891 94.5625 136.781 94.0156C137.672 93.4531 138.672 93.1719 139.781 93.1719C140.172 93.1719 140.555 93.1953 140.93 93.2422C141.32 93.2891 141.664 93.3594 141.961 93.4531ZM142.852 106.578V106.086C142.852 104.227 143.117 102.516 143.648 100.953C144.18 99.375 144.961 98.0078 145.992 96.8516C147.023 95.6953 148.297 94.7969 149.812 94.1562C151.328 93.5 153.078 93.1719 155.062 93.1719C157.062 93.1719 158.82 93.5 160.336 94.1562C161.867 94.7969 163.148 95.6953 164.18 96.8516C165.211 98.0078 165.992 99.375 166.523 100.953C167.055 102.516 167.32 104.227 167.32 106.086V106.578C167.32 108.422 167.055 110.133 166.523 111.711C165.992 113.273 165.211 114.641 164.18 115.812C163.148 116.969 161.875 117.867 160.359 118.508C158.844 119.148 157.094 119.469 155.109 119.469C153.125 119.469 151.367 119.148 149.836 118.508C148.305 117.867 147.023 116.969 145.992 115.812C144.961 114.641 144.18 113.273 143.648 111.711C143.117 110.133 142.852 108.422 142.852 106.578ZM150.75 106.086V106.578C150.75 107.531 150.82 108.422 150.961 109.25C151.102 110.078 151.336 110.805 151.664 111.43C151.992 112.039 152.438 112.516 153 112.859C153.562 113.203 154.266 113.375 155.109 113.375C155.938 113.375 156.625 113.203 157.172 112.859C157.734 112.516 158.18 112.039 158.508 111.43C158.836 110.805 159.07 110.078 159.211 109.25C159.352 108.422 159.422 107.531 159.422 106.578V106.086C159.422 105.164 159.352 104.297 159.211 103.484C159.07 102.656 158.836 101.93 158.508 101.305C158.18 100.664 157.734 100.164 157.172 99.8047C156.609 99.4453 155.906 99.2656 155.062 99.2656C154.234 99.2656 153.539 99.4453 152.977 99.8047C152.43 100.164 151.992 100.664 151.664 101.305C151.336 101.93 151.102 102.656 150.961 103.484C150.82 104.297 150.75 105.164 150.75 106.086ZM171.422 93.6406H179.344V119.82C179.344 121.852 178.953 123.562 178.172 124.953C177.391 126.359 176.273 127.422 174.82 128.141C173.367 128.875 171.633 129.242 169.617 129.242C168.945 129.242 168.328 129.211 167.766 129.148C167.188 129.102 166.555 129 165.867 128.844V122.867C166.273 122.93 166.648 122.977 166.992 123.008C167.336 123.055 167.711 123.078 168.117 123.078C168.836 123.078 169.438 122.961 169.922 122.727C170.406 122.492 170.773 122.133 171.023 121.648C171.289 121.164 171.422 120.555 171.422 119.82V93.6406ZM170.836 87.1016C170.836 85.9766 171.242 85.0547 172.055 84.3359C172.867 83.6172 173.922 83.2578 175.219 83.2578C176.516 83.2578 177.57 83.6172 178.383 84.3359C179.195 85.0547 179.602 85.9766 179.602 87.1016C179.602 88.2266 179.195 89.1484 178.383 89.8672C177.57 90.5859 176.516 90.9453 175.219 90.9453C173.922 90.9453 172.867 90.5859 172.055 89.8672C171.242 89.1484 170.836 88.2266 170.836 87.1016ZM196.102 119.469C194.039 119.469 192.195 119.148 190.57 118.508C188.945 117.852 187.57 116.953 186.445 115.812C185.336 114.672 184.484 113.359 183.891 111.875C183.312 110.391 183.023 108.82 183.023 107.164V106.273C183.023 104.414 183.281 102.695 183.797 101.117C184.312 99.5234 185.078 98.1328 186.094 96.9453C187.109 95.7578 188.383 94.8359 189.914 94.1797C191.445 93.5078 193.227 93.1719 195.258 93.1719C197.055 93.1719 198.664 93.4609 200.086 94.0391C201.508 94.6172 202.711 95.4453 203.695 96.5234C204.695 97.6016 205.453 98.9062 205.969 100.438C206.5 101.969 206.766 103.688 206.766 105.594V108.805H186.047V103.859H199.055V103.25C199.07 102.406 198.922 101.688 198.609 101.094C198.312 100.5 197.875 100.047 197.297 99.7344C196.719 99.4219 196.016 99.2656 195.188 99.2656C194.328 99.2656 193.617 99.4531 193.055 99.8281C192.508 100.203 192.078 100.719 191.766 101.375C191.469 102.016 191.258 102.758 191.133 103.602C191.008 104.445 190.945 105.336 190.945 106.273V107.164C190.945 108.102 191.07 108.953 191.32 109.719C191.586 110.484 191.961 111.141 192.445 111.688C192.945 112.219 193.539 112.633 194.227 112.93C194.93 113.227 195.727 113.375 196.617 113.375C197.695 113.375 198.758 113.172 199.805 112.766C200.852 112.359 201.75 111.688 202.5 110.75L206.086 115.016C205.57 115.75 204.836 116.461 203.883 117.148C202.945 117.836 201.82 118.398 200.508 118.836C199.195 119.258 197.727 119.469 196.102 119.469ZM220.688 113.375C221.422 113.375 222.047 113.242 222.562 112.977C223.094 112.695 223.492 112.305 223.758 111.805C224.039 111.289 224.172 110.672 224.156 109.953H231.586C231.602 111.859 231.133 113.531 230.18 114.969C229.242 116.391 227.961 117.5 226.336 118.297C224.727 119.078 222.906 119.469 220.875 119.469C218.891 119.469 217.156 119.148 215.672 118.508C214.188 117.852 212.945 116.945 211.945 115.789C210.961 114.617 210.219 113.25 209.719 111.688C209.234 110.125 208.992 108.43 208.992 106.602V106.062C208.992 104.234 209.234 102.539 209.719 100.977C210.219 99.3984 210.961 98.0312 211.945 96.875C212.945 95.7031 214.18 94.7969 215.648 94.1562C217.133 93.5 218.859 93.1719 220.828 93.1719C222.938 93.1719 224.797 93.5703 226.406 94.3672C228.031 95.1641 229.305 96.3203 230.227 97.8359C231.148 99.3516 231.602 101.188 231.586 103.344H224.156C224.172 102.578 224.055 101.891 223.805 101.281C223.555 100.672 223.164 100.188 222.633 99.8281C222.117 99.4531 221.453 99.2656 220.641 99.2656C219.828 99.2656 219.172 99.4453 218.672 99.8047C218.172 100.164 217.789 100.664 217.523 101.305C217.273 101.93 217.102 102.648 217.008 103.461C216.93 104.273 216.891 105.141 216.891 106.062V106.602C216.891 107.539 216.93 108.422 217.008 109.25C217.102 110.062 217.281 110.781 217.547 111.406C217.812 112.016 218.195 112.5 218.695 112.859C219.195 113.203 219.859 113.375 220.688 113.375ZM248.32 93.6406V99.125H233.039V93.6406H248.32ZM236.25 87.3359H244.148V110.727C244.148 111.398 244.227 111.922 244.383 112.297C244.539 112.656 244.805 112.914 245.18 113.07C245.57 113.211 246.086 113.281 246.727 113.281C247.18 113.281 247.555 113.273 247.852 113.258C248.148 113.227 248.43 113.188 248.695 113.141V118.789C248.023 119.008 247.32 119.172 246.586 119.281C245.852 119.406 245.07 119.469 244.242 119.469C242.555 119.469 241.109 119.203 239.906 118.672C238.719 118.141 237.812 117.305 237.188 116.164C236.562 115.023 236.25 113.539 236.25 111.711V87.3359ZM292.664 101.258V102.641C292.664 105.25 292.297 107.594 291.562 109.672C290.844 111.734 289.82 113.5 288.492 114.969C287.164 116.422 285.594 117.539 283.781 118.32C281.969 119.086 279.969 119.469 277.781 119.469C275.578 119.469 273.562 119.086 271.734 118.32C269.922 117.539 268.344 116.422 267 114.969C265.672 113.5 264.641 111.734 263.906 109.672C263.188 107.594 262.828 105.25 262.828 102.641V101.258C262.828 98.6484 263.188 96.3047 263.906 94.2266C264.641 92.1484 265.664 90.3828 266.977 88.9297C268.305 87.4609 269.875 86.3438 271.688 85.5781C273.516 84.7969 275.531 84.4062 277.734 84.4062C279.922 84.4062 281.922 84.7969 283.734 85.5781C285.562 86.3438 287.141 87.4609 288.469 88.9297C289.797 90.3828 290.828 92.1484 291.562 94.2266C292.297 96.3047 292.664 98.6484 292.664 101.258ZM284.32 102.641V101.211C284.32 99.5234 284.172 98.0391 283.875 96.7578C283.594 95.4609 283.172 94.375 282.609 93.5C282.047 92.625 281.352 91.9688 280.523 91.5312C279.711 91.0781 278.781 90.8516 277.734 90.8516C276.641 90.8516 275.688 91.0781 274.875 91.5312C274.062 91.9688 273.383 92.625 272.836 93.5C272.289 94.375 271.875 95.4609 271.594 96.7578C271.328 98.0391 271.195 99.5234 271.195 101.211V102.641C271.195 104.312 271.328 105.797 271.594 107.094C271.875 108.375 272.289 109.461 272.836 110.352C273.398 111.242 274.086 111.914 274.898 112.367C275.727 112.82 276.688 113.047 277.781 113.047C278.828 113.047 279.758 112.82 280.57 112.367C281.383 111.914 282.062 111.242 282.609 110.352C283.172 109.461 283.594 108.375 283.875 107.094C284.172 105.797 284.32 104.312 284.32 102.641ZM305.695 113.586L310.688 93.6406H319.008L310.711 119H305.789L305.695 113.586ZM302.742 93.6406L307.664 113.586L307.617 119H302.672L294.398 93.6406H302.742ZM333.305 119.469C331.242 119.469 329.398 119.148 327.773 118.508C326.148 117.852 324.773 116.953 323.648 115.812C322.539 114.672 321.688 113.359 321.094 111.875C320.516 110.391 320.227 108.82 320.227 107.164V106.273C320.227 104.414 320.484 102.695 321 101.117C321.516 99.5234 322.281 98.1328 323.297 96.9453C324.312 95.7578 325.586 94.8359 327.117 94.1797C328.648 93.5078 330.43 93.1719 332.461 93.1719C334.258 93.1719 335.867 93.4609 337.289 94.0391C338.711 94.6172 339.914 95.4453 340.898 96.5234C341.898 97.6016 342.656 98.9062 343.172 100.438C343.703 101.969 343.969 103.688 343.969 105.594V108.805H323.25V103.859H336.258V103.25C336.273 102.406 336.125 101.688 335.812 101.094C335.516 100.5 335.078 100.047 334.5 99.7344C333.922 99.4219 333.219 99.2656 332.391 99.2656C331.531 99.2656 330.82 99.4531 330.258 99.8281C329.711 100.203 329.281 100.719 328.969 101.375C328.672 102.016 328.461 102.758 328.336 103.602C328.211 104.445 328.148 105.336 328.148 106.273V107.164C328.148 108.102 328.273 108.953 328.523 109.719C328.789 110.484 329.164 111.141 329.648 111.688C330.148 112.219 330.742 112.633 331.43 112.93C332.133 113.227 332.93 113.375 333.82 113.375C334.898 113.375 335.961 113.172 337.008 112.766C338.055 112.359 338.953 111.688 339.703 110.75L343.289 115.016C342.773 115.75 342.039 116.461 341.086 117.148C340.148 117.836 339.023 118.398 337.711 118.836C336.398 119.258 334.93 119.469 333.305 119.469ZM355.148 99.9219V119H347.25V93.6406H354.633L355.148 99.9219ZM362.648 93.4531L362.508 100.789C362.195 100.758 361.773 100.719 361.242 100.672C360.711 100.625 360.266 100.602 359.906 100.602C358.984 100.602 358.188 100.711 357.516 100.93C356.859 101.133 356.312 101.445 355.875 101.867C355.453 102.273 355.141 102.789 354.938 103.414C354.75 104.039 354.664 104.766 354.68 105.594L353.25 104.656C353.25 102.953 353.414 101.406 353.742 100.016C354.086 98.6094 354.57 97.3984 355.195 96.3828C355.82 95.3516 356.578 94.5625 357.469 94.0156C358.359 93.4531 359.359 93.1719 360.469 93.1719C360.859 93.1719 361.242 93.1953 361.617 93.2422C362.008 93.2891 362.352 93.3594 362.648 93.4531ZM374.93 113.586L379.922 93.6406H388.242L379.945 119H375.023L374.93 113.586ZM371.977 93.6406L376.898 113.586L376.852 119H371.906L363.633 93.6406H371.977ZM398.93 93.6406V119H391.008V93.6406H398.93ZM390.539 87.1016C390.539 85.9766 390.945 85.0547 391.758 84.3359C392.57 83.6172 393.625 83.2578 394.922 83.2578C396.219 83.2578 397.273 83.6172 398.086 84.3359C398.898 85.0547 399.305 85.9766 399.305 87.1016C399.305 88.2266 398.898 89.1484 398.086 89.8672C397.273 90.5859 396.219 90.9453 394.922 90.9453C393.625 90.9453 392.57 90.5859 391.758 89.8672C390.945 89.1484 390.539 88.2266 390.539 87.1016ZM416.086 119.469C414.023 119.469 412.18 119.148 410.555 118.508C408.93 117.852 407.555 116.953 406.43 115.812C405.32 114.672 404.469 113.359 403.875 111.875C403.297 110.391 403.008 108.82 403.008 107.164V106.273C403.008 104.414 403.266 102.695 403.781 101.117C404.297 99.5234 405.062 98.1328 406.078 96.9453C407.094 95.7578 408.367 94.8359 409.898 94.1797C411.43 93.5078 413.211 93.1719 415.242 93.1719C417.039 93.1719 418.648 93.4609 420.07 94.0391C421.492 94.6172 422.695 95.4453 423.68 96.5234C424.68 97.6016 425.438 98.9062 425.953 100.438C426.484 101.969 426.75 103.688 426.75 105.594V108.805H406.031V103.859H419.039V103.25C419.055 102.406 418.906 101.688 418.594 101.094C418.297 100.5 417.859 100.047 417.281 99.7344C416.703 99.4219 416 99.2656 415.172 99.2656C414.312 99.2656 413.602 99.4531 413.039 99.8281C412.492 100.203 412.062 100.719 411.75 101.375C411.453 102.016 411.242 102.758 411.117 103.602C410.992 104.445 410.93 105.336 410.93 106.273V107.164C410.93 108.102 411.055 108.953 411.305 109.719C411.57 110.484 411.945 111.141 412.43 111.688C412.93 112.219 413.523 112.633 414.211 112.93C414.914 113.227 415.711 113.375 416.602 113.375C417.68 113.375 418.742 113.172 419.789 112.766C420.836 112.359 421.734 111.688 422.484 110.75L426.07 115.016C425.555 115.75 424.82 116.461 423.867 117.148C422.93 117.836 421.805 118.398 420.492 118.836C419.18 119.258 417.711 119.469 416.086 119.469ZM437.672 111.453L442.359 93.6406H447.305L445.547 102.57L440.906 119H436.945L437.672 111.453ZM435.82 93.6406L438.727 111.312L439.055 119H434.25L428.25 93.6406H435.82ZM451.477 110.938L454.406 93.6406H461.977L456.023 119H451.219L451.477 110.938ZM447.867 93.6406L452.602 111.406L453.328 119H449.32L444.773 102.617L443.086 93.6406H447.867Z" fill="black"/>
<path d="M1134 0H1348C1356.28 0 1363 6.71573 1363 15V148C1363 156.284 1356.28 163 1348 163H1134V0Z" fill="#5957AF"/>
<path d="M1234.26 103.786H1262.74V109.357H1234.26V103.786ZM1239.96 114.929H1257.04V120.5H1239.96V114.929ZM1248.5 42.5C1240.95 42.5 1233.71 45.4349 1228.37 50.6592C1223.03 55.8834 1220.03 62.969 1220.03 70.3571C1219.84 74.4057 1220.63 78.4412 1222.34 82.1315C1224.05 85.8219 1226.64 89.0616 1229.88 91.5843C1232.73 94.175 1234.26 95.6514 1234.26 98.2143H1239.96C1239.96 93.0886 1236.8 90.2193 1233.72 87.4614C1231.06 85.4676 1228.94 82.8658 1227.55 79.8838C1226.15 76.9019 1225.53 73.6308 1225.72 70.3571C1225.72 64.4466 1228.12 58.7781 1232.39 54.5988C1236.67 50.4194 1242.46 48.0714 1248.5 48.0714C1254.54 48.0714 1260.33 50.4194 1264.61 54.5988C1268.88 58.7781 1271.28 64.4466 1271.28 70.3571C1271.47 73.6333 1270.84 76.9059 1269.44 79.888C1268.04 82.8701 1265.92 85.4706 1263.25 87.4614C1260.2 90.2471 1257.04 93.0329 1257.04 98.2143H1262.74C1262.74 95.6514 1264.25 94.175 1267.12 91.5564C1270.36 89.0381 1272.94 85.8031 1274.66 82.1176C1276.37 78.4321 1277.16 74.4014 1276.97 70.3571C1276.97 66.6989 1276.24 63.0765 1274.81 59.6967C1273.37 56.3169 1271.28 53.2459 1268.63 50.6592C1265.99 48.0724 1262.85 46.0205 1259.4 44.6205C1255.94 43.2205 1252.24 42.5 1248.5 42.5Z" fill="white"/>
</svg>
